<?xml version="1.0" encoding="utf-8"?>
<svg width="251" height="44" viewBox="0 0 251 44" fill="none" xmlns="http://www.w3.org/2000/svg">
<path d="M248.24 15.4667C247.38 14.6049 246.683 14.0016 245.966 13.3121L243.917 11.3944C241.13 8.91649 238.568 6.71872 236.355 4.93034C231.929 1.41821 228.896 -0.477883 228.281 0.103881C227.666 0.685644 229.634 3.61602 233.281 7.92537C235.105 10.0801 237.38 12.5579 239.9 15.2513L243.138 18.6126C236.458 17.9446 222.031 17.4059 191.355 17.3413C159.08 17.3413 111.19 17.9877 71.4148 19.496C51.5171 20.207 33.6686 21.0042 20.7791 21.823C7.88962 22.6418 -0.0203302 23.3313 0.00016179 23.8484C0.0206538 24.3655 7.95111 24.581 20.8611 24.6672H71.5173C111.292 24.6672 159.1 24.6672 191.334 24.6672C222.871 24.6672 237.195 24.5379 243.65 23.9562C243.117 24.6672 242.482 25.4214 241.847 26.1109C240.597 27.5976 239.347 28.9981 238.117 30.3124C235.679 32.9196 233.343 35.1821 231.314 37.0351C227.216 40.7627 224.613 43.0466 225.064 43.7792C225.515 44.5118 229.019 43.4344 233.998 40.3533C236.902 38.5546 239.645 36.485 242.195 34.1693C243.63 32.8765 245.064 31.4544 246.478 29.86C247.195 29.0628 247.851 28.3302 248.527 27.3821C249.391 26.3387 250.083 25.1518 250.577 23.87C251.141 22.264 251.141 20.4986 250.577 18.8927C250.047 17.5463 249.251 16.3342 248.24 15.3375" fill="rgb(64, 64, 64)"/>
</svg>
