<?xml version="1.0" encoding="utf-8"?>
<svg width="260" height="95" viewBox="0 0 260 95" fill="none" xmlns="http://www.w3.org/2000/svg">
<path d="M211.495 79.6805C200.819 83.1818 189.881 85.6771 178.838 87.1304C163.78 89.1746 148.638 89.204 133.842 87.218C126.061 86.2336 118.423 84.6046 111.011 82.3485C105.404 84.4732 99.6591 86.1706 93.8318 87.4246C82.8618 89.7125 71.7038 90.3856 60.7429 89.4205C50.6016 88.5426 40.7719 86.1055 31.6179 82.1996C27.4073 80.3234 23.3826 78.1102 19.5831 75.5816C15.9023 73.2202 12.5622 70.4137 9.63635 67.2241C3.98404 61.0605 0.10464 53.5005 0.257388 45.3749C0.351343 41.4438 1.33128 37.5242 3.12867 33.8899C4.86638 30.5513 7.06238 27.4342 9.65303 24.6291C14.085 19.9127 19.0494 15.6899 24.4408 12.0505C28.4638 9.29091 32.7013 6.85487 37.1068 4.76897C39.8458 3.44887 42.6598 2.29905 45.5307 1.32694C47.4984 0.668974 48.562 0.425575 48.5899 0.555553C48.6179 0.685531 44.5638 2.3207 37.684 6.08025C33.5078 8.36591 29.4914 10.9357 25.6671 13.7689C20.6289 17.4471 16.0109 21.6519 11.9055 26.2992C9.62923 28.9189 7.71903 31.8085 6.22951 34.8855C4.74881 38.0783 4.00056 41.5046 4.03892 44.916C4.07148 51.8949 7.6929 58.6575 13.1212 64.2481C15.9327 67.1579 19.12 69.7043 22.6136 71.832C26.3005 74.1355 30.1925 76.1354 34.252 77.8121C42.9951 81.3454 52.347 83.4893 61.9667 84.1658C72.3457 84.9406 82.8883 84.1847 93.2388 81.9235C96.1757 81.2528 99.1147 80.4579 102.026 79.533C101.793 79.4564 101.55 79.3621 101.298 79.2974C99.0508 78.4339 96.8613 77.4498 94.7395 76.3494C90.3296 74.1807 86.2555 71.4649 82.6127 68.266C80.5843 66.4865 78.9136 64.3587 77.6751 61.9776C76.5004 59.5013 75.7896 56.8193 75.5738 54.0493C75.4089 51.0007 75.984 47.9105 77.2535 45.0239C78.6232 42.0509 80.6297 39.3622 83.1325 37.1465C87.9821 32.9736 93.7971 30.0374 99.9965 28.6315C108.858 26.4621 118.01 26.7354 126.392 29.4198C129.104 30.3189 131.698 31.4883 134.133 32.9102C139.173 35.7283 143.075 40.0607 145.293 45.3026C146.466 48.1947 146.783 51.3931 146.211 54.5558C145.534 57.8033 144.053 60.8916 141.896 63.5485C137.778 68.3512 132.722 72.3299 127.052 75.2289C125.566 76.1523 124 76.9044 122.426 77.686C126.931 78.7583 131.509 79.5861 136.141 80.1657C150.222 82.0452 164.623 82.0662 178.959 80.228C189.49 78.9049 199.937 76.655 210.167 73.5065C221.491 69.9768 232.555 65.5658 243.246 60.3182C246.293 58.7195 248.357 57.7069 249.785 57.1145C241.076 52.3172 232.91 46.7024 225.394 40.345C219.301 35.0446 216.159 31.1772 216.792 30.5384C218.161 29.1719 233.824 41.2464 255.553 52.842L256.67 53.4495C257.162 53.7324 257.617 54.0667 258.03 54.4468C258.793 55.1821 259.22 56.1889 259.226 57.2644C259.116 58.7041 258.497 60.095 257.474 61.2018L256.042 63.1475L253.304 66.8141L248.056 73.7099C244.668 78.0745 241.575 81.9365 238.927 85.154C233.609 91.5534 230.013 95.2859 229.326 94.9025C228.639 94.5191 230.983 90.0906 235.368 83.1662C237.576 79.7069 240.288 75.6148 243.369 71.0968L248.288 64.0123L249.676 61.9958C248.533 62.7061 247.227 63.6647 245.515 64.7775C234.772 71.0939 223.376 76.2053 211.565 80.0055L211.495 79.6805ZM124.076 69.7598C128.814 67.3346 133.046 64.0188 136.508 60.0202C137.947 58.3371 138.905 56.3325 139.278 54.2257C139.65 52.1189 139.422 49.9911 138.618 48.0751C136.807 44.0295 133.717 40.7031 129.766 38.5464C127.714 37.3817 125.536 36.424 123.262 35.687C120.932 34.9875 118.53 34.4916 116.083 34.2053C111.119 33.6683 106.035 34.0301 101.087 35.2725C96.3369 36.354 91.88 38.5989 88.1546 41.7861C86.5613 43.141 85.2978 44.8217 84.4674 46.6908C83.637 48.5599 83.2633 50.5643 83.3768 52.5403C83.5771 54.501 84.0971 56.3988 84.9177 58.1645C85.8568 59.8449 87.0846 61.3468 88.552 62.6105C91.7948 65.3954 95.4034 67.7632 99.2976 69.6612C101.211 70.6355 103.182 71.5092 105.202 72.2789L111.451 74.3881C112.208 74.6296 112.963 74.8238 113.739 75.0535C117.297 73.4708 120.775 71.7035 124.155 69.7597" fill="#072333"/>
</svg>
