<?xml version="1.0" encoding="utf-8"?>
<svg width="93" height="193" viewBox="0 0 93 193" fill="none" xmlns="http://www.w3.org/2000/svg">
<path d="M66.0694 180.222C64.8201 181.947 63.53 183.728 62.0311 185.402C61.3553 186.335 60.545 187.17 59.795 188.093L57.9223 190.056C57.0865 190.701 56.1968 191.306 55.3135 191.96C53.7516 192.079 51.9492 192.757 50.1989 191.834C49.1491 191.426 48.1399 190.926 47.1823 190.339L45.3808 189.034C44.3321 188.275 43.3104 187.535 42.3424 186.833C40.3795 185.412 38.6546 183.775 36.9427 182.233C33.4982 179.178 30.3239 176.146 27.3314 173.203C21.4002 167.355 16.2705 161.873 12.0947 157.167C3.74315 147.756 -0.778639 141.378 0.18778 140.44C1.1542 139.501 7.41805 144.21 16.9344 152.353L33.4537 166.731L43.1711 175.105C44.0046 175.708 44.8381 176.312 45.5962 177.077C42.8496 167.431 40.6246 157.617 38.9309 147.678C36.4342 133.107 34.6918 118.377 33.7108 103.548C32.6645 87.4135 32.5367 71.1863 33.328 54.9473C34.7882 24.2344 40.0366 0.403348 41.5358 0.540764C43.035 0.678181 41.2228 24.9718 41.9889 55.271C42.3182 70.3817 43.2917 87.0367 44.9334 102.882C46.575 118.728 48.8644 133.792 50.8907 145.994C53.4322 160.767 55.4645 170.3 56.5731 176.75C57.1465 175.958 57.7404 175.138 58.3138 174.346C60.9121 171.098 63.4016 167.944 65.7682 164.959C70.5219 158.962 74.8456 153.558 78.5473 149.126C85.9916 140.205 91.0297 135.06 92.2333 135.889C93.4369 136.717 90.3425 143.141 84.2887 153.198C81.2926 158.184 77.54 164.044 73.1755 170.41C70.9024 173.549 68.5063 176.857 66.0079 180.307" fill="rgb(64, 64, 64)"/>
</svg>
