<?xml version="1.0" encoding="utf-8"?>
<svg width="150" height="266" viewBox="0 0 150 266" fill="none" xmlns="http://www.w3.org/2000/svg">
<path d="M63.8499 265.942C64.6429 266.019 65.4423 266.019 66.2353 265.942C67.7162 265.837 69.1197 265.276 70.2294 264.344C71.475 263.11 72.2043 261.491 72.2819 259.788C72.4205 258.897 72.5592 258.007 72.6701 257.169C72.9475 255.467 73.1972 253.791 73.4191 252.167C73.8629 248.868 74.3066 245.699 74.7227 242.688C75.4716 236.665 76.054 231.27 76.4424 226.714C77.1913 217.627 77.1081 211.997 76.0263 211.866C74.9446 211.735 73.0308 217.103 70.8118 226.007C69.7024 230.458 68.5096 235.801 67.2892 241.719C66.7345 244.704 66.0965 247.846 65.4863 251.12C65.172 252.708 64.8669 254.332 64.5711 255.991C63.9721 255.087 63.324 254.213 62.6295 253.372C60.05 249.732 55.2792 244.076 48.3173 234.386C38.3487 220.638 29.9793 205.914 23.3543 190.471C18.6009 179.187 15.1238 167.46 12.9808 155.486C11.8175 148.885 11.1134 142.219 10.8728 135.531C10.7022 128.536 11.0172 121.538 11.8158 114.582C12.7247 107.508 14.1802 100.506 16.1705 93.6324C18.2133 86.6713 20.8667 79.8829 24.1033 73.3377C30.4819 60.3561 39.2749 48.5598 50.0648 38.5092C55.2494 33.7495 60.8131 29.3722 66.7068 25.4158C72.3097 21.7317 78.1971 18.4492 84.3196 15.5958C94.7694 10.5983 105.865 6.90969 117.326 4.62349C125.165 3.16544 133.113 2.28987 141.097 2.00481C144.07 2.21855 147.06 2.08665 150 1.61203C147.139 0.740395 144.158 0.272712 141.152 0.224131C132.948 -0.266731 124.712 0.0491718 116.577 1.16682C104.502 2.89601 92.7405 6.20096 81.6291 10.9869C75.0888 13.7562 68.7833 16.9954 62.7682 20.676C56.3896 24.6455 50.3604 29.0942 44.7394 33.9789C32.99 44.3209 23.3287 56.5923 16.2261 70.1952C12.6401 77.0442 9.67103 84.1659 7.35028 91.4851C5.08453 98.7212 3.40623 106.11 2.32995 113.587C0.313553 127.888 0.509737 142.39 2.9124 156.638C5.06229 169.192 8.66176 181.485 13.6465 193.299C20.4803 209.427 29.4756 224.661 40.4124 238.629C45.4326 245.149 50.9977 251.278 57.0544 256.959L57.7479 257.562C44.7379 256.075 31.6241 255.558 18.5282 256.017C7.01744 256.41 -0.0276547 257.614 8.19523e-05 258.635C8.19523e-05 260.73 28.1806 260.992 62.0748 265.758L63.8499 265.942Z" fill="#072333"/>
</svg>
