<?xml version="1.0" encoding="utf-8"?>
<svg width="300" height="200" viewBox="0 0 392 333" fill="none" xmlns="http://www.w3.org/2000/svg">
<path d="M357.894 130.039C381.762 107.229 392.761 81.7623 391.959 60.5006C391.735 50.9285 389.371 41.4539 384.968 32.4768C381.728 25.6431 377.231 19.1878 371.609 13.3009C367.997 9.53537 363.879 6.06294 359.319 2.93917C356.068 0.85337 354.287 -0.122335 354.064 0.0122334C353.842 0.146801 360.432 4.72214 368.804 14.5456C380.286 28.2918 386.17 44.2834 385.725 60.5343C385.725 80.7195 374.147 104.773 350.68 126.237C338.297 137.598 323.667 147.448 307.308 155.438C289.451 164.245 269.456 170.283 248.484 173.201C226.413 176.194 203.691 174.815 182.535 169.198C170.877 166.16 160.012 161.605 150.429 155.741C158.445 153.554 166.861 151.334 175.411 148.676C185.688 145.622 195.414 141.598 204.355 136.7C213.664 131.505 221.355 124.834 226.887 117.154C232.621 109.386 235.814 100.696 236.202 91.8066C236.589 82.9176 234.159 74.0872 229.114 66.0515C223.228 57.0693 213.366 49.9277 201.238 45.8663C194.423 43.6574 186.966 42.8227 179.596 43.4441C172.577 44.1286 165.819 45.8918 159.736 48.625C154.219 51.0483 149.042 53.8887 144.284 57.1027C139.584 60.2078 135.207 63.582 131.192 67.1953C127.173 70.7158 123.553 74.4859 120.372 78.4654C117.14 82.4171 114.426 86.5972 112.267 90.9466C110.083 95.2831 108.588 99.8003 107.814 104.403C106.864 109 106.714 113.671 107.369 118.298C108.663 127.593 112.844 136.526 119.57 144.37C121.402 146.539 123.394 148.628 125.537 150.628C121.619 151.839 117.744 153.117 114.004 154.496C97.8419 160.481 83.5912 169.044 72.2349 179.593C62.9278 188.286 55.4207 197.996 49.97 208.391C41.8663 224.198 37.6704 240.994 37.5907 257.946C37.3803 269.196 38.3033 280.443 40.3515 291.588C41.8655 300.368 43.4686 306.928 44.8045 311.773C45.8287 315.608 46.7192 318.501 47.4762 320.587L45.2943 319.006C42.3364 317.049 39.1122 315.335 35.6758 313.892C30.0556 311.541 24.0731 309.722 17.8639 308.476C7.39935 306.424 0.719867 306.255 0.0519192 307.433C-0.616029 308.61 5.21744 311.1 14.1679 314.565C19.2494 316.471 24.1584 318.629 28.8627 321.024C31.4502 322.341 33.8791 323.827 36.1211 325.465L39.728 328.325C40.485 328.896 41.2867 329.502 42.3108 330.141C43.5189 330.905 44.8506 331.549 46.2739 332.059C48.0385 332.679 49.961 333 51.907 333C53.853 333 55.7754 332.679 57.54 332.059C58.3809 331.753 59.1855 331.393 59.9446 330.982C60.7016 330.545 61.4141 330.04 61.7704 329.805L63.8187 328.19C66.3569 326.172 68.717 324.22 70.8989 322.303C74.7943 318.915 78.4367 315.366 81.8088 311.672C87.4641 305.381 89.9132 301.007 88.4437 300.234C86.9742 299.46 81.8533 302.454 74.4168 307.567C70.6763 310.124 66.4015 313.219 61.6368 316.651L57.1838 319.813C57.1838 317.593 56.872 314.632 56.3822 310.562C55.7587 305.583 55.0018 299.056 53.9776 290.376C52.7049 279.606 52.3033 268.787 52.7752 257.979C53.2957 242.23 57.4862 226.674 65.1545 212.024C70.1816 202.703 77.0095 193.996 85.4157 186.187C95.3337 176.998 107.778 169.548 121.886 164.353C126.65 162.537 131.727 160.989 137.026 159.408C149.054 167.452 163.131 173.554 178.394 177.339C201.789 183.297 226.831 184.561 251.067 181.006C273.471 177.646 294.759 170.931 313.676 161.258C330.59 152.623 345.615 142.044 358.206 129.904L357.894 130.039ZM131.371 139.391C125.762 132.677 122.329 125.058 121.351 117.154C120.842 113.273 121.021 109.358 121.886 105.514C122.695 101.592 124.099 97.754 126.072 94.0753C127.993 90.3196 130.394 86.7141 133.241 83.3099C136.106 79.8142 139.353 76.5057 142.948 73.4191C146.548 70.2904 150.464 67.3772 154.66 64.7058C158.713 62.0043 163.114 59.6151 167.796 57.5738C171.768 55.5974 176.321 54.3861 181.056 54.046C185.792 53.7059 190.565 54.2471 194.959 55.6225C203.732 58.7204 210.824 64.0073 215.042 70.5932C217.187 73.7699 218.688 77.1721 219.495 80.6858C220.391 84.2316 220.69 87.8488 220.386 91.4513C219.819 98.5705 217.183 105.508 212.666 111.77C208.148 118.032 201.859 123.466 194.247 127.684C186.379 131.909 177.855 135.389 168.865 138.045C158.89 141.14 148.559 143.731 138.406 146.49C135.845 144.215 133.494 141.809 131.371 139.29" fill="rgb(64, 64, 64)"/>
</svg>

